<?xml version="1.0" encoding="utf-8"?>
<!-- Generator: Adobe Illustrator 24.1.0, SVG Export Plug-In . SVG Version: 6.00 Build 0)  -->
<svg version="1.1" id="Layer_1" xmlns="http://www.w3.org/2000/svg" xmlns:xlink="http://www.w3.org/1999/xlink" x="0px" y="0px"
	 viewBox="0 0 850.39 850.39" style="enable-background:new 0 0 850.39 850.39;" xml:space="preserve">
<style type="text/css">
	.st0{fill:#0F2345;}
	.st1{fill:#FFFF00;}
	.st2{fill:#EC1C24;}
</style>
<g>
	<path class="st0" d="M850.7,423.68c0-234.83-190.37-425.2-425.2-425.2C190.67-1.52,0.3,188.85,0.3,423.68
		c0,93.21,30.02,179.4,80.88,249.48c75.38,107.83,200.43,178.37,341.97,178.37c77.36,0,149.78-21.09,211.88-57.8
		C763.81,720.64,850.7,582.31,850.7,423.68z"/>
	<g>
		<path class="st1" d="M425.5,28.3l0,1.64L425.5,28.3C206.41,28.3,28.8,205.91,28.8,425c0,219.09,177.61,396.7,396.7,396.7
			c219.09,0,396.7-177.61,396.7-396.7C821.95,206.01,644.49,28.55,425.5,28.3z M703.69,703.19
			c-71.2,71.2-169.54,115.23-278.19,115.23c-108.64,0-206.99-44.03-278.19-115.23C76.12,631.99,32.09,533.64,32.08,425
			c0-108.64,44.03-206.99,115.23-278.19c71.2-71.2,169.54-115.23,278.19-115.23C642.67,31.83,818.67,207.83,818.92,425
			C818.91,533.64,774.88,631.99,703.69,703.19z"/>
		<polygon class="st1" points="238.63,470.9 235.34,470.92 235.34,512.93 238.63,512.93 		"/>
		<path class="st1" d="M612.37,685.6c0,8.74-3.54,16.63-9.26,22.36c-5.73,5.73-13.62,9.26-22.36,9.26h-46.69
			c-14.82-0.05-27.61-10.4-30.78-24.88l0,0c-6.2-31.64-30.94-56.37-62.58-62.55c-5.13-1-10.25-1.49-15.29-1.49
			c-37.14,0-70.29,26.23-77.7,64.04h0c-3.16,14.48-15.96,24.82-30.78,24.88h-46.68c-8.74,0-16.63-3.54-22.36-9.26
			c-5.73-5.73-9.26-13.62-9.26-22.36V533.33l-3.28-0.53v152.8c0,19.28,15.63,34.91,34.91,34.91h46.69
			c16.37-0.06,30.49-11.48,33.98-27.46l0.01-0.04c7.08-36.26,38.88-61.42,74.49-61.42c4.83,0,9.74,0.46,14.66,1.43
			c30.34,5.93,54.07,29.65,59.99,59.99l0,0.02l0,0.02c3.49,15.99,17.62,27.4,33.98,27.46h46.69c19.28,0,34.91-15.63,34.91-34.91
			V573.18l-3.28,0.02V685.6z"/>
		<polygon class="st1" points="612.37,356.44 612.37,492.35 615.66,492.34 615.66,356.42 		"/>
		<path class="st1" d="M238.63,164.4c0-8.74,3.54-16.63,9.26-22.36c5.73-5.73,13.62-9.26,22.36-9.26h46.69
			c14.82,0.05,27.61,10.4,30.77,24.88l0,0c6.2,31.64,30.94,56.37,62.58,62.55c5.13,1,10.25,1.49,15.29,1.49
			c37.14,0,70.29-26.23,77.7-64.04l0,0c3.16-14.48,15.96-24.83,30.78-24.88h46.68c8.74,0,16.63,3.54,22.36,9.26
			c5.73,5.73,9.26,13.62,9.26,22.36v111.19l3.28-0.02V164.4c0-19.28-15.63-34.91-34.91-34.91h-46.69
			c-16.37,0.06-30.49,11.48-33.99,27.46l-0.01,0.04c-7.09,36.26-38.88,61.42-74.49,61.42c-4.83,0-9.74-0.46-14.66-1.43
			c-30.34-5.93-54.07-29.65-60-59.99l0-0.02l0-0.02c-3.49-15.99-17.61-27.4-33.98-27.46h-46.69c-19.28,0-34.91,15.63-34.91,34.91
			v235.96h3.28V164.4z"/>
		<polygon class="st2" points="344.41,503.51 327.59,522.78 235.06,522.78 316.15,535.88 312.26,540.34 269.25,540.34 
			306.94,546.43 290.81,564.92 620.77,563.31 674.37,501.9 		"/>
		<polygon class="st2" points="550.78,459.53 604.38,398.12 274.42,399.73 265.27,410.21 165.17,410.21 252.9,424.38 249.93,427.78 
			199.37,427.78 243.68,434.94 220.82,461.14 		"/>
		<polygon class="st2" points="355.87,286.69 348.33,295.32 252.16,295.32 336.45,308.94 332.99,312.89 286.35,312.89 327.23,319.5 
			302.26,348.1 632.23,346.49 685.83,285.08 		"/>
	</g>
</g>
</svg>
