<?xml version="1.0" encoding="utf-8"?>
<!-- Generator: Adobe Illustrator 24.1.0, SVG Export Plug-In . SVG Version: 6.00 Build 0)  -->
<svg version="1.1" id="Layer_1" xmlns="http://www.w3.org/2000/svg" xmlns:xlink="http://www.w3.org/1999/xlink" x="0px" y="0px"
	 viewBox="0 0 850.39 850.39" style="enable-background:new 0 0 850.39 850.39;" xml:space="preserve">
<style type="text/css">
	.st0{fill:#0F2345;}
	.st1{fill:#FFFF00;}
	.st2{fill:#EC1C24;}
</style>
<path class="st0" d="M850.7,423.68c0-234.83-190.37-425.2-425.2-425.2C190.67-1.52,0.3,188.85,0.3,423.68
	c0,93.21,30.02,179.4,80.88,249.48c75.38,107.83,200.43,178.37,341.97,178.37c77.36,0,149.78-21.09,211.88-57.8
	C763.81,720.64,850.7,582.31,850.7,423.68z"/>
<g>
	<path class="st1" d="M412,119.19c1.91-6.03,7.49-9.87,13.49-9.87c1.42,0,2.86,0.22,4.3,0.67c4.38,1.39,7.81,4.82,9.21,9.2
		l49.48,155.68l3.44-0.02l-49.8-156.66c-1.72-5.39-5.95-9.62-11.34-11.34c-1.76-0.56-3.54-0.82-5.29-0.82
		c-7.4,0-14.25,4.74-16.62,12.16L358.88,275.5l3.45-0.02L412,119.19z"/>
	<path class="st1" d="M258.15,687.84c-2.55,1.9-5.5,2.8-8.45,2.81c-4.33,0-8.59-1.97-11.37-5.7c-1.84-2.48-2.81-5.45-2.81-8.46
		c0-1.44,0.22-2.89,0.67-4.3l38.85-122.24l-3.28-0.53l-38.71,121.77c-0.55,1.73-0.83,3.52-0.83,5.3c0,3.71,1.18,7.37,3.46,10.42
		c3.42,4.59,8.68,7.03,14,7.03c3.62,0,7.28-1.13,10.41-3.45l158.45-117.65l-5.54,0.03L258.15,687.84z"/>
	<polygon class="st1" points="300.29,470.56 298.35,469.12 292.89,469.16 296.45,471.8 283.8,511.6 287.24,511.6 	"/>
	<path class="st1" d="M425.5,26.98l0,1.64L425.5,26.98c-219.09,0-396.7,177.61-396.7,396.7c0,219.09,177.61,396.7,396.7,396.7
		c219.09,0,396.7-177.61,396.7-396.7C821.95,204.69,644.49,27.22,425.5,26.98z M703.69,701.86
		c-71.2,71.2-169.54,115.23-278.19,115.23c-108.64,0-206.99-44.03-278.19-115.23c-71.2-71.2-115.23-169.54-115.23-278.19
		c0-108.64,44.03-206.99,115.23-278.19c71.2-71.2,169.54-115.23,278.19-115.23C642.67,30.5,818.67,206.5,818.91,423.68
		C818.91,532.32,774.88,630.66,703.69,701.86z"/>
	<path class="st1" d="M709.94,320.53c3.92,0,7.44,1.58,10.01,4.15c2.56,2.57,4.15,6.1,4.15,10.01c0,4.46-2.1,8.65-5.66,11.32
		L550.71,470.61l0.35,1.12l6.22,19.58l3.44-0.02l-6.18-19.44L720.4,348.65l0.01,0c4.39-3.29,6.98-8.46,6.98-13.95
		c0-9.63-7.81-17.45-17.44-17.45h-40.27l-2.87,3.28H709.94z"/>
	<path class="st1" d="M132.56,346.05L132.56,346.05c-3.71-2.78-5.66-7.02-5.66-11.34c0-2.96,0.92-5.93,2.83-8.49
		c2.67-3.56,6.87-5.66,11.33-5.66h143.78l0.26-3.28l-144.04,0c-5.49,0-10.66,2.59-13.96,6.98c-2.35,3.13-3.49,6.82-3.49,10.46
		c0,5.3,2.41,10.54,6.98,13.97l0.01,0l67.83,50.35h5.51L132.56,346.05z"/>
	<path class="st1" d="M614.79,672.27c0.46,1.44,0.67,2.89,0.68,4.31c0,5.99-3.84,11.57-9.86,13.48c-1.41,0.45-2.86,0.67-4.31,0.67
		c-3.01,0-5.98-0.96-8.46-2.8L437.81,572.73l-5.47,0.03l158.55,117.82c3.05,2.27,6.71,3.45,10.42,3.45c1.78,0,3.57-0.27,5.3-0.83
		c7.41-2.37,12.15-9.22,12.15-16.61c0-1.76-0.27-3.55-0.83-5.31L586.38,572l-3.44,0.02L614.79,672.27z"/>
	<polygon class="st2" points="620.77,561.99 674.37,500.58 344.41,502.19 327.59,521.45 235.06,521.45 316.15,534.56 312.26,539.02 
		269.25,539.02 306.94,545.11 290.81,563.59 	"/>
	<polygon class="st2" points="550.78,458.21 604.38,396.8 274.42,398.41 265.27,408.89 165.17,408.89 252.9,423.06 249.93,426.46 
		199.37,426.46 243.68,433.62 220.82,459.82 	"/>
	<polygon class="st2" points="685.83,283.76 355.87,285.37 348.33,294 252.16,294 336.44,307.62 332.99,311.57 286.35,311.57 
		327.23,318.18 302.26,346.78 632.23,345.17 	"/>
</g>
</svg>
